<svg width="20" height="20" viewBox="0 0 20 20" fill="none" xmlns="http://www.w3.org/2000/svg">
<path d="M17.1429 7.16477V13.9524C17.1429 14.5839 16.892 15.1895 16.4455 15.636C15.999 16.0825 15.3934 16.3333 14.7619 16.3333H4.28571C3.65425 16.3333 3.04864 16.0825 2.60213 15.636C2.15561 15.1895 1.90476 14.5839 1.90476 13.9524V7.16477L9.28191 11.5057C9.35519 11.5489 9.43872 11.5717 9.52381 11.5717C9.60889 11.5717 9.69243 11.5489 9.76571 11.5057L17.1429 7.16477ZM14.7619 3.95239C15.3478 3.9523 15.9131 4.16821 16.3497 4.55881C16.7864 4.94941 17.0637 5.48729 17.1286 6.06954L9.52381 10.5429L1.91905 6.06954C1.98396 5.48729 2.26126 4.94941 2.6979 4.55881C3.13454 4.16821 3.69986 3.9523 4.28571 3.95239H14.7619Z" fill="#3D52A1"/>
</svg>
