<svg width="252" height="170" viewBox="0 0 252 170" fill="none" xmlns="http://www.w3.org/2000/svg">
<path d="M166.391 67.8909H92.4844V0.859619C92.4844 0.386963 92.0977 0.000244141 91.625 0.000244141H85.6094C85.1367 0.000244141 84.75 0.386963 84.75 0.859619V74.7659C84.75 75.2385 85.1367 75.6253 85.6094 75.6253H166.391C166.863 75.6253 167.25 75.2385 167.25 74.7659V68.7503C167.25 68.2776 166.863 67.8909 166.391 67.8909ZM103.85 51.3157C104.183 51.6487 104.72 51.6487 105.063 51.3157L119.92 36.5344L133.627 50.3274C133.96 50.6604 134.508 50.6604 134.841 50.3274L164.425 20.7542C164.758 20.4211 164.758 19.8733 164.425 19.5403L160.171 15.2864C160.009 15.1264 159.791 15.0367 159.564 15.0367C159.337 15.0367 159.119 15.1264 158.957 15.2864L134.25 39.9827L120.564 26.2112C120.403 26.0513 120.185 25.9615 119.958 25.9615C119.73 25.9615 119.512 26.0513 119.351 26.2112L99.6064 45.8372C99.4465 45.9987 99.3568 46.2168 99.3568 46.4441C99.3568 46.6714 99.4465 46.8895 99.6064 47.051L103.85 51.3157Z" fill="#3D52A1"/>
<path d="M19.1486 151.389C15.7886 151.389 12.8446 150.652 10.3166 149.18C7.82063 147.708 5.85263 145.676 4.41263 143.084C3.00463 140.46 2.30063 137.436 2.30063 134.012C2.30063 130.588 3.00463 127.58 4.41263 124.988C5.85263 122.364 7.82063 120.316 10.3166 118.844C12.8446 117.372 15.7886 116.636 19.1486 116.636C22.4766 116.636 25.4046 117.372 27.9326 118.844C30.4606 120.316 32.4286 122.364 33.8366 124.988C35.2446 127.58 35.9486 130.588 35.9486 134.012C35.9486 137.436 35.2446 140.46 33.8366 143.084C32.4286 145.676 30.4606 147.708 27.9326 149.18C25.4046 150.652 22.4766 151.389 19.1486 151.389ZM19.1486 145.868C22.3486 145.868 24.8926 144.812 26.7806 142.7C28.7006 140.588 29.6606 137.692 29.6606 134.012C29.6606 130.332 28.7006 127.436 26.7806 125.324C24.8926 123.212 22.3486 122.156 19.1486 122.156C15.9486 122.156 13.3886 123.212 11.4686 125.324C9.54863 127.436 8.58863 130.332 8.58863 134.012C8.58863 137.692 9.54863 140.588 11.4686 142.7C13.3886 144.812 15.9486 145.868 19.1486 145.868ZM50.1574 151.389C47.1814 151.389 44.8774 150.46 43.2454 148.604C41.6454 146.748 40.8454 144.028 40.8454 140.444V127.004H46.9414V139.868C46.9414 141.916 47.3574 143.484 48.1894 144.572C49.0214 145.66 50.3334 146.204 52.1254 146.204C53.8214 146.204 55.2134 145.596 56.3014 144.38C57.4214 143.164 57.9814 141.468 57.9814 139.292V127.004H64.1254V150.812H58.7014L58.2214 146.78C57.4854 148.188 56.4134 149.308 55.0054 150.14C53.6294 150.972 52.0134 151.389 50.1574 151.389ZM70.4325 150.812V127.004H75.9045L76.4805 131.468C77.3445 129.932 78.5125 128.716 79.9845 127.82C81.4885 126.892 83.2485 126.428 85.2645 126.428V132.908H83.5365C82.1925 132.908 80.9925 133.116 79.9365 133.532C78.8805 133.948 78.0485 134.668 77.4405 135.692C76.8645 136.716 76.5765 138.14 76.5765 139.964V150.812H70.4325ZM100.901 150.812V127.004H106.325L106.853 130.22C107.621 129.068 108.629 128.156 109.877 127.484C111.157 126.78 112.629 126.428 114.293 126.428C117.973 126.428 120.581 127.852 122.117 130.7C122.981 129.388 124.133 128.348 125.573 127.58C127.045 126.812 128.645 126.428 130.373 126.428C133.477 126.428 135.861 127.356 137.525 129.212C139.189 131.068 140.021 133.788 140.021 137.372V150.812H133.877V137.948C133.877 135.9 133.477 134.332 132.677 133.244C131.909 132.156 130.709 131.612 129.077 131.612C127.413 131.612 126.069 132.22 125.045 133.436C124.053 134.652 123.557 136.348 123.557 138.524V150.812H117.413V137.948C117.413 135.9 117.013 134.332 116.213 133.244C115.413 132.156 114.181 131.612 112.517 131.612C110.885 131.612 109.557 132.22 108.533 133.436C107.541 134.652 107.045 136.348 107.045 138.524V150.812H100.901ZM149.166 123.308C148.046 123.308 147.118 122.972 146.382 122.3C145.678 121.628 145.326 120.78 145.326 119.756C145.326 118.732 145.678 117.9 146.382 117.26C147.118 116.588 148.046 116.252 149.166 116.252C150.286 116.252 151.198 116.588 151.902 117.26C152.638 117.9 153.006 118.732 153.006 119.756C153.006 120.78 152.638 121.628 151.902 122.3C151.198 122.972 150.286 123.308 149.166 123.308ZM146.094 150.812V127.004H152.238V150.812H146.094ZM168.491 151.389C166.379 151.389 164.523 151.052 162.923 150.38C161.323 149.676 160.043 148.716 159.083 147.5C158.123 146.284 157.547 144.876 157.355 143.276H163.547C163.739 144.204 164.251 145.004 165.083 145.676C165.947 146.316 167.051 146.636 168.395 146.636C169.739 146.636 170.715 146.364 171.323 145.82C171.963 145.276 172.283 144.652 172.283 143.948C172.283 142.924 171.835 142.236 170.939 141.884C170.043 141.5 168.795 141.132 167.195 140.78C166.171 140.556 165.131 140.284 164.075 139.964C163.019 139.644 162.043 139.244 161.147 138.764C160.283 138.252 159.579 137.612 159.035 136.844C158.491 136.044 158.219 135.068 158.219 133.916C158.219 131.804 159.051 130.028 160.715 128.588C162.411 127.148 164.779 126.428 167.819 126.428C170.635 126.428 172.875 127.084 174.539 128.396C176.235 129.708 177.243 131.516 177.563 133.82H171.755C171.403 132.06 170.075 131.18 167.771 131.18C166.619 131.18 165.723 131.404 165.083 131.852C164.475 132.3 164.171 132.86 164.171 133.532C164.171 134.236 164.635 134.796 165.563 135.212C166.491 135.628 167.723 136.012 169.259 136.364C170.923 136.748 172.443 137.18 173.819 137.66C175.227 138.108 176.347 138.796 177.179 139.724C178.011 140.62 178.427 141.916 178.427 143.612C178.459 145.084 178.075 146.412 177.275 147.596C176.475 148.78 175.323 149.708 173.819 150.38C172.315 151.052 170.539 151.389 168.491 151.389ZM187.182 123.308C186.062 123.308 185.134 122.972 184.398 122.3C183.694 121.628 183.342 120.78 183.342 119.756C183.342 118.732 183.694 117.9 184.398 117.26C185.134 116.588 186.062 116.252 187.182 116.252C188.302 116.252 189.214 116.588 189.918 117.26C190.654 117.9 191.022 118.732 191.022 119.756C191.022 120.78 190.654 121.628 189.918 122.3C189.214 122.972 188.302 123.308 187.182 123.308ZM184.11 150.812V127.004H190.254V150.812H184.11ZM208.091 151.389C205.787 151.389 203.707 150.86 201.851 149.804C200.027 148.748 198.571 147.292 197.483 145.436C196.427 143.548 195.899 141.372 195.899 138.908C195.899 136.444 196.443 134.284 197.531 132.428C198.619 130.54 200.075 129.068 201.899 128.012C203.755 126.956 205.835 126.428 208.139 126.428C210.411 126.428 212.459 126.956 214.283 128.012C216.139 129.068 217.595 130.54 218.651 132.428C219.739 134.284 220.283 136.444 220.283 138.908C220.283 141.372 219.739 143.548 218.651 145.436C217.595 147.292 216.139 148.748 214.283 149.804C212.427 150.86 210.363 151.389 208.091 151.389ZM208.091 146.06C209.691 146.06 211.083 145.468 212.267 144.284C213.451 143.068 214.043 141.276 214.043 138.908C214.043 136.54 213.451 134.764 212.267 133.58C211.083 132.364 209.707 131.756 208.139 131.756C206.507 131.756 205.099 132.364 203.915 133.58C202.763 134.764 202.187 136.54 202.187 138.908C202.187 141.276 202.763 143.068 203.915 144.284C205.099 145.468 206.491 146.06 208.091 146.06ZM225.776 150.812V127.004H231.2L231.68 131.036C232.416 129.628 233.472 128.508 234.848 127.676C236.256 126.844 237.904 126.428 239.792 126.428C242.736 126.428 245.024 127.356 246.656 129.212C248.288 131.068 249.104 133.788 249.104 137.372V150.812H242.96V137.948C242.96 135.9 242.544 134.332 241.712 133.244C240.88 132.156 239.584 131.612 237.824 131.612C236.096 131.612 234.672 132.22 233.552 133.436C232.464 134.652 231.92 136.348 231.92 138.524V150.812H225.776Z" fill="#3D52A1"/>
</svg>
