<svg width="17" height="16" viewBox="0 0 17 16" fill="none" xmlns="http://www.w3.org/2000/svg">
<path d="M11.1012 11.0716L12.4345 9.73822C12.6141 9.56087 12.8413 9.43946 13.0886 9.38874C13.3358 9.33803 13.5925 9.36018 13.8274 9.45251L15.4524 10.1013C15.6898 10.1977 15.8933 10.3621 16.0374 10.574C16.1814 10.7859 16.2596 11.0356 16.2619 11.2918V14.268C16.2605 14.4423 16.2239 14.6144 16.1542 14.7742C16.0845 14.9339 15.9832 15.0779 15.8564 15.1975C15.7296 15.3171 15.58 15.4097 15.4164 15.4699C15.2529 15.5301 15.0788 15.5566 14.9048 15.5477C3.51786 14.8394 1.22024 5.19656 0.785713 1.50608C0.765542 1.32485 0.783972 1.14141 0.83979 0.967813C0.895607 0.794219 0.987548 0.63441 1.10956 0.4989C1.23158 0.363391 1.3809 0.255251 1.54771 0.181595C1.71452 0.10794 1.89504 0.0704385 2.07738 0.0715575H4.95238C5.20893 0.0723169 5.45939 0.149812 5.67154 0.294075C5.8837 0.438338 6.04784 0.642772 6.14286 0.881081L6.79167 2.50608C6.88705 2.74005 6.91139 2.99694 6.86164 3.24466C6.81188 3.49238 6.69024 3.71995 6.5119 3.89894L5.17857 5.23227C5.17857 5.23227 5.94643 10.4287 11.1012 11.0716Z" fill="#3D52A1"/>
</svg>
