<svg width="66" height="54" viewBox="0 0 66 54" fill="none" xmlns="http://www.w3.org/2000/svg">
<path d="M6.03258 8.22656C10.6238 3.24914 17.5713 0.726074 26.6785 0.726074H29.951V9.95114L27.3199 10.478C22.8367 11.3747 19.718 13.1385 18.0491 15.727C17.1782 17.1215 16.6843 18.7182 16.6157 20.3608H26.6785C27.5465 20.3608 28.3788 20.7056 28.9925 21.3193C29.6062 21.933 29.951 22.7654 29.951 23.6333V46.5405C29.951 50.1501 27.0156 53.0855 23.4061 53.0855H3.77131C2.9034 53.0855 2.07104 52.7407 1.45733 52.127C0.843624 51.5133 0.498848 50.6809 0.498848 49.813V33.4507L0.508666 23.8984C0.479213 23.5351 -0.142554 14.9286 6.03258 8.22656ZM59.4032 53.0855H39.7684C38.9005 53.0855 38.0681 52.7407 37.4544 52.127C36.8407 51.5133 36.4959 50.6809 36.4959 49.813V33.4507L36.5057 23.8984C36.4763 23.5351 35.8545 14.9286 42.0297 8.22656C46.6209 3.24914 53.5684 0.726074 62.6756 0.726074H65.9481V9.95114L63.317 10.478C58.8338 11.3747 55.7151 13.1385 54.0461 15.727C53.1753 17.1215 52.6814 18.7182 52.6128 20.3608H62.6756C63.5435 20.3608 64.3759 20.7056 64.9896 21.3193C65.6033 21.933 65.9481 22.7654 65.9481 23.6333V46.5405C65.9481 50.1501 63.0127 53.0855 59.4032 53.0855Z" fill="#3D52A0"/>
</svg>
