<svg width="23" height="19" viewBox="0 0 23 19" fill="none" xmlns="http://www.w3.org/2000/svg">
<path d="M22.706 2.18976C21.871 2.55976 20.974 2.80976 20.031 2.92276C21.004 2.34056 21.7319 1.42423 22.079 0.344763C21.1648 0.887752 20.1643 1.26996 19.121 1.47476C18.4194 0.725628 17.4901 0.229089 16.4773 0.0622365C15.4646 -0.104616 14.4251 0.067554 13.5202 0.552015C12.6154 1.03648 11.8958 1.80612 11.4732 2.74147C11.0505 3.67681 10.9485 4.72551 11.183 5.72476C9.33069 5.63176 7.51863 5.15031 5.86442 4.31167C4.21022 3.47302 2.75084 2.29592 1.581 0.856763C1.181 1.54676 0.951 2.34676 0.951 3.19876C0.950554 3.96576 1.13943 4.72101 1.50088 5.3975C1.86232 6.07399 2.38516 6.6508 3.023 7.07676C2.28328 7.05323 1.55987 6.85335 0.913 6.49376V6.55376C0.912925 7.6295 1.28503 8.67214 1.96618 9.50476C2.64733 10.3374 3.59557 10.9087 4.65 11.1218C3.96378 11.3075 3.24434 11.3348 2.546 11.2018C2.8435 12.1274 3.423 12.9368 4.20337 13.5167C4.98374 14.0966 5.92592 14.4179 6.898 14.4358C5.24783 15.7312 3.20989 16.4339 1.112 16.4308C0.740381 16.4309 0.369076 16.4092 0 16.3658C2.12948 17.7349 4.60834 18.4616 7.14 18.4588C15.71 18.4588 20.395 11.3608 20.395 5.20476C20.395 5.00476 20.39 4.80276 20.381 4.60276C21.2923 3.94374 22.0789 3.12766 22.704 2.19276L22.706 2.18976Z" fill="#3D52A1"/>
</svg>
