<svg xmlns="http://www.w3.org/2000/svg" viewBox="0 0 215.18 241.05"><defs><style>.cls-1{fill:#009fe3;}.cls-2{fill:#1d1d1b;}</style></defs><g id="objects"><path class="cls-1" d="M373.45,224.61a25.25,25.25,0,0,1,21.73,25V266.3c0,124.45-75.66,158-100.09,165.61a25.24,25.24,0,0,1-15,0C255.66,424.31,180,390.75,180,266.3V249.73a25.2,25.2,0,0,1,21.78-25,159,159,0,0,0,71.34-27.94,25.36,25.36,0,0,1,29.24-.22A165.75,165.75,0,0,0,373.45,224.61Z" transform="translate(-180 -192)"/><path class="cls-2" d="M272.63,349.28a13,13,0,0,1-9.22-3.82L238,320a13,13,0,1,1,18.44-18.45l15,15,53.26-69a13,13,0,0,1,20.65,15.93L283,344.21a13.06,13.06,0,0,1-9.49,5Z" transform="translate(-180 -192)"/></g></svg>