<svg width="234" height="179" viewBox="0 0 234 179" fill="none" xmlns="http://www.w3.org/2000/svg">
<path d="M152.166 1.65274C147.489 0.605112 142.71 0.0741537 137.916 0.0694104C133.389 -0.218032 128.85 0.39232 124.56 1.86536C120.269 3.33841 116.312 5.64509 112.916 8.65274C108.444 13.125 104.014 17.5833 99.6247 22.0277C94.5831 21.4861 82.6247 21.1944 74.6247 29.2777C73.8487 30.0584 73.4131 31.1145 73.4131 32.2152C73.4131 33.316 73.8487 34.3721 74.6247 35.1527L121.708 82.3194C122.489 83.0955 123.545 83.531 124.646 83.531C125.746 83.531 126.802 83.0955 127.583 82.3194C135.708 73.9861 135.458 62.2361 134.958 57.3194L148.333 43.9861C161.625 30.6944 155.583 5.73608 155.333 4.69441C155.141 3.94289 154.742 3.25999 154.183 2.72261C153.623 2.18522 152.925 1.8147 152.166 1.65274ZM142.333 38.1111L127.5 52.8611C127.019 53.3461 126.666 53.9418 126.469 54.5957C126.273 55.2496 126.241 55.9417 126.375 56.6111C127.275 62.1853 126.491 67.9013 124.125 73.0277L83.8331 32.6527C89.0408 30.2559 94.8623 29.5283 100.5 30.5694C101.167 30.6563 101.845 30.5803 102.476 30.3481C103.107 30.116 103.673 29.7344 104.125 29.2361C104.125 29.2361 109.958 23.1944 118.75 14.4027C124.156 10.0616 131 7.91897 137.916 8.40274C141.17 8.41886 144.416 8.69755 147.625 9.23608C148.625 15.1944 150.208 30.2361 142.333 38.1111Z" fill="#3D52A1"/>
<path d="M19.3596 160.312C15.9996 160.312 13.0556 159.576 10.5276 158.104C8.03156 156.632 6.06356 154.6 4.62356 152.008C3.21556 149.384 2.51156 146.36 2.51156 142.936C2.51156 139.512 3.21556 136.504 4.62356 133.912C6.06356 131.288 8.03156 129.24 10.5276 127.768C13.0556 126.296 15.9996 125.56 19.3596 125.56C22.6876 125.56 25.6156 126.296 28.1436 127.768C30.6716 129.24 32.6396 131.288 34.0476 133.912C35.4556 136.504 36.1596 139.512 36.1596 142.936C36.1596 146.36 35.4556 149.384 34.0476 152.008C32.6396 154.6 30.6716 156.632 28.1436 158.104C25.6156 159.576 22.6876 160.312 19.3596 160.312ZM19.3596 154.792C22.5596 154.792 25.1036 153.736 26.9916 151.624C28.9116 149.512 29.8716 146.616 29.8716 142.936C29.8716 139.256 28.9116 136.36 26.9916 134.248C25.1036 132.136 22.5596 131.08 19.3596 131.08C16.1596 131.08 13.5996 132.136 11.6796 134.248C9.75956 136.36 8.79956 139.256 8.79956 142.936C8.79956 146.616 9.75956 149.512 11.6796 151.624C13.5996 153.736 16.1596 154.792 19.3596 154.792ZM50.3683 160.312C47.3923 160.312 45.0883 159.384 43.4563 157.528C41.8563 155.672 41.0563 152.952 41.0563 149.368V135.928H47.1523V148.792C47.1523 150.84 47.5683 152.408 48.4003 153.496C49.2323 154.584 50.5443 155.128 52.3363 155.128C54.0323 155.128 55.4243 154.52 56.5123 153.304C57.6323 152.088 58.1923 150.392 58.1923 148.216V135.928H64.3363V159.736H58.9123L58.4323 155.704C57.6963 157.112 56.6243 158.232 55.2163 159.064C53.8403 159.896 52.2243 160.312 50.3683 160.312ZM70.6434 159.736V135.928H76.1154L76.6914 140.392C77.5554 138.856 78.7234 137.64 80.1954 136.744C81.6994 135.816 83.4594 135.352 85.4754 135.352V141.832H83.7474C82.4034 141.832 81.2034 142.04 80.1474 142.456C79.0914 142.872 78.2594 143.592 77.6514 144.616C77.0754 145.64 76.7874 147.064 76.7874 148.888V159.736H70.6434ZM107.544 159.736L98.8082 135.928H105.24L111.288 153.928L117.336 135.928H123.768L114.984 159.736H107.544ZM130.955 132.232C129.835 132.232 128.907 131.896 128.171 131.224C127.467 130.552 127.115 129.704 127.115 128.68C127.115 127.656 127.467 126.824 128.171 126.184C128.907 125.512 129.835 125.176 130.955 125.176C132.075 125.176 132.987 125.512 133.691 126.184C134.427 126.824 134.795 127.656 134.795 128.68C134.795 129.704 134.427 130.552 133.691 131.224C132.987 131.896 132.075 132.232 130.955 132.232ZM127.883 159.736V135.928H134.027V159.736H127.883ZM150.28 160.312C148.168 160.312 146.312 159.976 144.712 159.304C143.112 158.6 141.832 157.64 140.872 156.424C139.912 155.208 139.336 153.8 139.144 152.2H145.336C145.528 153.128 146.04 153.928 146.872 154.6C147.736 155.24 148.84 155.56 150.184 155.56C151.528 155.56 152.504 155.288 153.112 154.744C153.752 154.2 154.072 153.576 154.072 152.872C154.072 151.848 153.624 151.16 152.728 150.808C151.832 150.424 150.584 150.056 148.984 149.704C147.96 149.48 146.92 149.208 145.864 148.888C144.808 148.568 143.832 148.168 142.936 147.688C142.072 147.176 141.368 146.536 140.824 145.768C140.28 144.968 140.008 143.992 140.008 142.84C140.008 140.728 140.84 138.952 142.504 137.512C144.2 136.072 146.568 135.352 149.608 135.352C152.424 135.352 154.664 136.008 156.328 137.32C158.024 138.632 159.032 140.44 159.352 142.744H153.544C153.192 140.984 151.864 140.104 149.56 140.104C148.408 140.104 147.512 140.328 146.872 140.776C146.264 141.224 145.96 141.784 145.96 142.456C145.96 143.16 146.424 143.72 147.352 144.136C148.28 144.552 149.512 144.936 151.048 145.288C152.712 145.672 154.232 146.104 155.608 146.584C157.016 147.032 158.136 147.72 158.968 148.648C159.8 149.544 160.216 150.84 160.216 152.536C160.248 154.008 159.864 155.336 159.064 156.52C158.264 157.704 157.112 158.632 155.608 159.304C154.104 159.976 152.328 160.312 150.28 160.312ZM168.971 132.232C167.851 132.232 166.923 131.896 166.187 131.224C165.483 130.552 165.131 129.704 165.131 128.68C165.131 127.656 165.483 126.824 166.187 126.184C166.923 125.512 167.851 125.176 168.971 125.176C170.091 125.176 171.003 125.512 171.707 126.184C172.443 126.824 172.811 127.656 172.811 128.68C172.811 129.704 172.443 130.552 171.707 131.224C171.003 131.896 170.091 132.232 168.971 132.232ZM165.899 159.736V135.928H172.043V159.736H165.899ZM189.88 160.312C187.576 160.312 185.496 159.784 183.64 158.728C181.816 157.672 180.36 156.216 179.272 154.36C178.216 152.472 177.688 150.296 177.688 147.832C177.688 145.368 178.232 143.208 179.32 141.352C180.408 139.464 181.864 137.992 183.688 136.936C185.544 135.88 187.624 135.352 189.928 135.352C192.2 135.352 194.248 135.88 196.072 136.936C197.928 137.992 199.384 139.464 200.44 141.352C201.528 143.208 202.072 145.368 202.072 147.832C202.072 150.296 201.528 152.472 200.44 154.36C199.384 156.216 197.928 157.672 196.072 158.728C194.216 159.784 192.152 160.312 189.88 160.312ZM189.88 154.984C191.48 154.984 192.872 154.392 194.056 153.208C195.24 151.992 195.832 150.2 195.832 147.832C195.832 145.464 195.24 143.688 194.056 142.504C192.872 141.288 191.496 140.68 189.928 140.68C188.296 140.68 186.888 141.288 185.704 142.504C184.552 143.688 183.976 145.464 183.976 147.832C183.976 150.2 184.552 151.992 185.704 153.208C186.888 154.392 188.28 154.984 189.88 154.984ZM207.565 159.736V135.928H212.989L213.469 139.96C214.205 138.552 215.261 137.432 216.637 136.6C218.045 135.768 219.693 135.352 221.581 135.352C224.525 135.352 226.813 136.28 228.445 138.136C230.077 139.992 230.893 142.712 230.893 146.296V159.736H224.749V146.872C224.749 144.824 224.333 143.256 223.501 142.168C222.669 141.08 221.373 140.536 219.613 140.536C217.885 140.536 216.461 141.144 215.341 142.36C214.253 143.576 213.709 145.272 213.709 147.448V159.736H207.565Z" fill="#3D52A1"/>
</svg>
