<svg width="24" height="17" viewBox="0 0 24 17" fill="none" xmlns="http://www.w3.org/2000/svg">
<path d="M23.5006 2.51245C23.3647 2.02768 23.1 1.58879 22.7346 1.24245C22.3589 0.885451 21.8984 0.630083 21.3966 0.500447C19.5186 0.00544706 11.9946 0.00544717 11.9946 0.00544717C8.85795 -0.0302402 5.72205 0.126722 2.60462 0.475447C2.10281 0.61466 1.64318 0.875734 1.26662 1.23545C0.896617 1.59145 0.628617 2.03045 0.488617 2.51145C0.15231 4.32319 -0.0110908 6.16279 0.000617183 8.00545C-0.0113828 9.84645 0.151617 11.6854 0.488617 13.4994C0.625617 13.9784 0.892617 14.4154 1.26362 14.7684C1.63462 15.1214 2.09662 15.3764 2.60462 15.5114C4.50762 16.0054 11.9946 16.0054 11.9946 16.0054C15.1353 16.0412 18.2752 15.8842 21.3966 15.5354C21.8984 15.4058 22.3589 15.1504 22.7346 14.7934C23.1046 14.4404 23.3676 14.0014 23.4996 13.5234C23.8447 11.7124 24.0125 9.87204 24.0006 8.02845C24.0266 6.17705 23.859 4.32901 23.5006 2.51245ZM9.60262 11.4294V4.58245L15.8626 8.00645L9.60262 11.4294Z" fill="#3D52A1"/>
</svg>
